<svg xmlns="http://www.w3.org/2000/svg" version="1.1" xmlns:xlink="http://www.w3.org/1999/xlink" width="200" height="200"><svg xmlns="http://www.w3.org/2000/svg" version="1.1" xmlns:xlink="http://www.w3.org/1999/xlink" width="200" height="200"><svg xmlns="http://www.w3.org/2000/svg" version="1.1" xmlns:xlink="http://www.w3.org/1999/xlink" viewBox="0 0 200 200"><rect width="200" height="200" fill="url('#gradient')"></rect><defs><linearGradient id="gradient" gradientTransform="rotate(0 0.5 0.5)"><stop offset="0%" stop-color="#ffffff"></stop><stop offset="100%" stop-color="#ffffff"></stop></linearGradient></defs><g><g fill="#360000" transform="matrix(3.5302007083825266,0,0,3.5302007083825266,23.215204000309754,125.93295648471242)" stroke="#ffffff" stroke-width="0"><path d="M12.95-14.22L12.95 0L9.54 0L4.50-8.85L4.50 0L1.07 0L1.07-14.22L4.50-14.22L9.53-5.37L9.53-14.22L12.95-14.22ZM14.56-4.82L14.55-5.38Q14.55-6.96 15.17-8.20Q15.78-9.43 16.93-10.10Q18.09-10.76 19.64-10.76L19.64-10.76Q22.01-10.76 23.38-9.29Q24.75-7.82 24.75-5.29L24.75-5.29L24.75-5.18Q24.75-2.71 23.37-1.25Q22.00 0.20 19.66 0.20L19.66 0.20Q17.40 0.20 16.04-1.16Q14.67-2.51 14.56-4.82L14.56-4.82ZM17.85-5.77L17.84-5.18Q17.84-3.71 18.30-3.03Q18.76-2.34 19.66-2.34L19.66-2.34Q21.42-2.34 21.46-5.05L21.46-5.05L21.46-5.38Q21.46-8.22 19.64-8.22L19.64-8.22Q17.99-8.22 17.85-5.77L17.85-5.77ZM37.51-14.22L37.51-11.57L33.24-11.57L33.24 0L29.81 0L29.81-11.57L25.63-11.57L25.63-14.22L37.51-14.22ZM42.28-10.57L42.28 0L38.97 0L38.97-10.57L42.28-10.57ZM38.78-13.29L38.78-13.29Q38.78-13.99 39.29-14.44Q39.79-14.89 40.61-14.89Q41.42-14.89 41.92-14.44Q42.43-13.99 42.43-13.29Q42.43-12.59 41.92-12.14Q41.42-11.69 40.61-11.69Q39.79-11.69 39.29-12.14Q38.78-12.59 38.78-13.29Z"></path></g></g></svg></svg><style>@media (prefers-color-scheme: light) { :root { filter: none; } }
@media (prefers-color-scheme: dark) { :root { filter: none; } }
</style></svg>